<svg width="43" height="9" viewBox="0 0 43 9" fill="none" xmlns="http://www.w3.org/2000/svg">
<path d="M31.7488 2.75375C30.6853 2.75375 29.823 3.61243 29.823 4.67161C29.823 5.7308 30.6853 6.58947 31.7488 6.58947C32.8124 6.58947 33.6746 5.7308 33.6746 4.67161C33.6746 3.61243 32.8124 2.75375 31.7488 2.75375ZM31.7488 5.83081C31.1059 5.83081 30.5848 5.31188 30.5848 4.67161C30.5848 4.03135 31.1059 3.51242 31.7488 3.51242C32.3917 3.51242 32.9128 4.03135 32.9128 4.67161C32.9128 5.31188 32.3915 5.83081 31.7488 5.83081Z" fill="white"/>
<path d="M10.3009 1.63869V3.11802C9.97328 2.86775 9.56421 2.71871 9.12042 2.71871C8.04875 2.71871 7.17694 3.58694 7.17694 4.65422C7.17694 5.72149 8.04875 6.58973 9.12042 6.58973C9.56421 6.58973 9.97328 6.44044 10.3009 6.19042V6.4929H11.0639V1.63869H10.3009ZM9.12067 5.82959C8.46989 5.82959 7.9402 5.30233 7.9402 4.65397C7.9402 4.00562 8.46964 3.47835 9.12067 3.47835C9.7717 3.47835 10.3011 4.00562 10.3011 4.65397C10.3011 5.30233 9.77145 5.82959 9.12067 5.82959Z" fill="white"/>
<path d="M15.934 2.74175C15.4902 2.74175 15.0811 2.89103 14.7535 3.14106V1.63844H13.9905V6.49241H14.7535V6.21321C15.0811 6.46349 15.4902 6.61252 15.934 6.61252C17.0057 6.61252 17.8775 5.74429 17.8775 4.67701C17.8775 3.60974 17.0057 2.74175 15.934 2.74175ZM15.934 5.85288C15.2832 5.85288 14.7535 5.32562 14.7535 4.67726C14.7535 4.0289 15.283 3.50164 15.934 3.50164C16.585 3.50164 17.1144 4.0289 17.1144 4.67726C17.1144 5.32562 16.5848 5.85288 15.934 5.85288Z" fill="white"/>
<path d="M12.51 1.62521C12.2386 1.62521 12.0178 1.84509 12.0178 2.11546C12.0178 2.38583 12.2386 2.60571 12.51 2.60571C12.7815 2.60571 13.0023 2.38583 13.0023 2.11546C13.0023 1.84509 12.7815 1.62521 12.51 1.62521Z" fill="white"/>
<path d="M24.8232 5.63054C24.5517 5.63054 24.3309 5.85042 24.3309 6.12079C24.3309 6.39117 24.5517 6.61104 24.8232 6.61104C25.0946 6.61104 25.3154 6.39117 25.3154 6.12079C25.3154 5.85042 25.0946 5.63054 24.8232 5.63054Z" fill="white"/>
<path d="M5.25245 5.63104C5.05308 5.74723 4.8387 5.80631 4.61496 5.80631C4.33338 5.80631 4.08257 5.70679 3.84874 5.50235C3.66857 5.34474 3.56248 5.17315 3.52532 4.97926H6.55647V4.81674C6.55647 4.54146 6.52546 4.2934 6.46393 4.0794C6.40042 3.85879 6.28671 3.64725 6.12525 3.4509C5.93867 3.22539 5.71518 3.04914 5.46093 2.92682C5.20593 2.80426 4.93149 2.74224 4.64548 2.74224C4.11038 2.74224 3.65208 2.93026 3.28337 3.30137C2.91515 3.67176 2.72858 4.12696 2.72858 4.65447C2.72858 5.18688 2.91884 5.64355 3.2942 6.01221C3.66881 6.38015 4.12761 6.56669 4.65803 6.56669C5.0521 6.56669 5.42056 6.44682 5.75284 6.21027C6.07799 5.97912 6.30886 5.67835 6.4403 5.31679H5.59384C5.5104 5.4423 5.39792 5.54599 5.25245 5.63104ZM3.9056 3.76564C4.12392 3.58817 4.36784 3.50189 4.65163 3.50189C4.92607 3.50189 5.16409 3.59038 5.37995 3.77275C5.54215 3.91002 5.65488 4.06445 5.72306 4.24339H3.55928C3.62722 4.05636 3.74093 3.89973 3.9056 3.76564Z" fill="white"/>
<path d="M12.9257 2.98222H12.144V6.49266H12.9257V2.98222Z" fill="white"/>
<path d="M19.3631 1.63869H18.5813V6.49266H19.3631V1.63869Z" fill="white"/>
<path d="M23.954 4.81649C23.954 4.54122 23.923 4.29315 23.8614 4.07916C23.7979 3.85854 23.6842 3.647 23.5228 3.45065C23.3362 3.22514 23.1127 3.04865 22.8584 2.92658C22.6034 2.80401 22.329 2.742 22.043 2.742C21.5079 2.742 21.0496 2.93001 20.6809 3.30113C20.3127 3.67151 20.1261 4.12671 20.1261 4.65422C20.1261 5.18663 20.3164 5.6433 20.6917 6.01197C21.0663 6.3799 21.5251 6.56644 22.0556 6.56644C22.4496 6.56644 22.8181 6.44657 23.1504 6.21003C23.4755 5.97887 23.7064 5.67811 23.8378 5.31655H22.9914C22.9079 5.44254 22.7954 5.54623 22.65 5.63129C22.4506 5.74748 22.2362 5.80655 22.0125 5.80655C21.7309 5.80655 21.4801 5.70703 21.2463 5.5026C21.0661 5.34498 20.96 5.17339 20.9228 4.9795H23.954V4.81649ZM20.9568 4.24339C21.0247 4.05636 21.1385 3.89972 21.3031 3.76564C21.5214 3.58817 21.7654 3.50189 22.0492 3.50189C22.3236 3.50189 22.5616 3.59038 22.7775 3.77275C22.9397 3.91002 23.0524 4.06445 23.1206 4.24339H20.9568Z" fill="white"/>
<path d="M39.5584 3.10454C39.2875 2.82142 38.8904 2.67189 38.4107 2.67189C37.8596 2.67189 37.484 2.84421 37.2066 3.22833C36.9927 2.89201 36.5487 2.67189 36.0653 2.67189C35.6333 2.67189 35.349 2.78514 35.0633 3.08174V2.77068H34.3059V6.53825H35.1162V4.43066C35.1162 3.7502 35.3921 3.41952 35.9597 3.41952C36.4712 3.41952 36.7306 3.73549 36.7306 4.35835V6.53825H37.5409V4.42405C37.5409 3.7198 37.7833 3.41952 38.3514 3.41952C39.016 3.41952 39.1553 3.97302 39.1553 4.43728V6.53825H39.9656V4.26618C39.9653 3.78402 39.8245 3.38251 39.5584 3.10454Z" fill="white"/>
<path d="M27.471 5.83082C26.8281 5.83082 26.3071 5.31189 26.3071 4.67163C26.3071 4.03136 26.8281 3.51243 27.471 3.51243C27.8944 3.51243 28.2648 3.73746 28.4684 4.07377H29.3011C29.0488 3.30726 28.3251 2.75352 27.471 2.75352C26.4075 2.75352 25.5453 3.6122 25.5453 4.67138C25.5453 5.73057 26.4075 6.58924 27.471 6.58924C28.3168 6.58924 29.0347 6.04604 29.2934 5.29106H28.4544C28.2481 5.61536 27.885 5.83082 27.471 5.83082Z" fill="white"/>
<path d="M40.3679 6.5282V6.02545H40.2561V5.94775H40.5648V6.02545H40.453V6.5282H40.3679Z" fill="white"/>
<path d="M41.1633 6.52819V6.03794H41.1608L40.9646 6.52819H40.9134L40.7165 6.03794H40.715V6.52819H40.6299V5.94773H40.7638L40.9385 6.39239L41.114 5.94773H41.2479V6.52819H41.1633Z" fill="white"/>
</svg>
