<svg width="102" height="102" viewBox="0 0 102 102" fill="none" xmlns="http://www.w3.org/2000/svg">
  <g filter="url(#filter0_d_3024_11032)">
    <ellipse cx="50.6289" cy="40.6452" rx="20.6289" ry="20.6452" fill="white" />
    <path
      d="M54.4818 37.2932C56.4976 38.9904 57.5056 39.8389 57.5056 41.2903C57.5056 42.7417 56.4976 43.5903 54.4818 45.2875C53.9253 45.756 53.3733 46.1971 52.8661 46.5647C52.4212 46.8872 51.9173 47.2207 51.3955 47.5482C49.3844 48.8103 48.3788 49.4414 47.4769 48.7427C46.575 48.044 46.4931 46.5813 46.3291 43.6558C46.2828 42.8285 46.2534 42.0174 46.2534 41.2903C46.2534 40.5632 46.2828 39.7522 46.3291 38.9249C46.4931 35.9994 46.575 34.5367 47.4769 33.8379C48.3788 33.1392 49.3844 33.7703 51.3955 35.0325C51.9173 35.3599 52.4212 35.6935 52.8661 36.016C53.3733 36.3835 53.9253 36.8247 54.4818 37.2932Z"
      stroke="#1D1D1D"
      stroke-linejoin="round"
    />
  </g>
  <defs>
    <filter id="filter0_d_3024_11032" x="0" y="0" width="101.258" height="101.29" filterUnits="userSpaceOnUse" color-interpolation-filters="sRGB">
      <feFlood flood-opacity="0" result="BackgroundImageFix" />
      <feColorMatrix in="SourceAlpha" type="matrix" values="0 0 0 0 0 0 0 0 0 0 0 0 0 0 0 0 0 0 127 0" result="hardAlpha" />
      <feOffset dy="10" />
      <feGaussianBlur stdDeviation="15" />
      <feComposite in2="hardAlpha" operator="out" />
      <feColorMatrix type="matrix" values="0 0 0 0 0 0 0 0 0 0 0 0 0 0 0 0 0 0 0.2 0" />
      <feBlend mode="normal" in2="BackgroundImageFix" result="effect1_dropShadow_3024_11032" />
      <feBlend mode="normal" in="SourceGraphic" in2="effect1_dropShadow_3024_11032" result="shape" />
    </filter>
  </defs>
</svg>
